<mxfile host="app.diagrams.net" modified="2020-10-22T11:51:47.414Z" agent="5.0 (Macintosh; Intel Mac OS X 10_15_6) AppleWebKit/605.1.15 (KHTML, like Gecko) Version/14.0.1 Safari/605.1.15" etag="05KqHT9NhoxrKsij7t8M" version="13.8.1" type="github">
  <diagram id="HQnREK34H-d9so5Twpd-" name="第 1 页">
    <mxGraphModel dx="830" dy="800" grid="0" gridSize="10" guides="1" tooltips="1" connect="1" arrows="1" fold="1" page="1" pageScale="1" pageWidth="827" pageHeight="1169" math="0" shadow="0">
      <root>
        <mxCell id="0" />
        <mxCell id="1" parent="0" />
        <mxCell id="t6z-Ru4cVA2ObkCtdwVK-3" value="" style="edgeStyle=orthogonalEdgeStyle;rounded=0;orthogonalLoop=1;jettySize=auto;html=1;" parent="1" source="t6z-Ru4cVA2ObkCtdwVK-1" target="t6z-Ru4cVA2ObkCtdwVK-2" edge="1">
          <mxGeometry relative="1" as="geometry" />
        </mxCell>
        <mxCell id="t6z-Ru4cVA2ObkCtdwVK-1" value="获取Json格式&lt;br&gt;风场数据" style="rounded=1;whiteSpace=wrap;html=1;" parent="1" vertex="1">
          <mxGeometry x="77" y="135" width="120" height="60" as="geometry" />
        </mxCell>
        <mxCell id="t6z-Ru4cVA2ObkCtdwVK-5" value="" style="edgeStyle=orthogonalEdgeStyle;rounded=0;orthogonalLoop=1;jettySize=auto;html=1;" parent="1" source="t6z-Ru4cVA2ObkCtdwVK-2" target="t6z-Ru4cVA2ObkCtdwVK-4" edge="1">
          <mxGeometry relative="1" as="geometry" />
        </mxCell>
        <mxCell id="t6z-Ru4cVA2ObkCtdwVK-2" value="构建风场网格" style="whiteSpace=wrap;html=1;rounded=1;" parent="1" vertex="1">
          <mxGeometry x="231" y="135" width="120" height="60" as="geometry" />
        </mxCell>
        <mxCell id="t6z-Ru4cVA2ObkCtdwVK-7" value="" style="edgeStyle=orthogonalEdgeStyle;rounded=0;orthogonalLoop=1;jettySize=auto;html=1;entryX=0.5;entryY=0;entryDx=0;entryDy=0;" parent="1" source="t6z-Ru4cVA2ObkCtdwVK-4" target="t6z-Ru4cVA2ObkCtdwVK-6" edge="1">
          <mxGeometry relative="1" as="geometry" />
        </mxCell>
        <mxCell id="t6z-Ru4cVA2ObkCtdwVK-4" value="从网格中随机获取一定数量的粒子(格点)，并由风场网格的风速向量计算粒子生命周期" style="whiteSpace=wrap;html=1;rounded=1;" parent="1" vertex="1">
          <mxGeometry x="377" y="135" width="143" height="60" as="geometry" />
        </mxCell>
        <mxCell id="t6z-Ru4cVA2ObkCtdwVK-6" value="粒子是否在&lt;br&gt;风场范围内？" style="rhombus;whiteSpace=wrap;html=1;rounded=1;" parent="1" vertex="1">
          <mxGeometry x="381.5" y="216" width="133.5" height="80" as="geometry" />
        </mxCell>
        <mxCell id="t6z-Ru4cVA2ObkCtdwVK-12" value="" style="edgeStyle=orthogonalEdgeStyle;rounded=0;orthogonalLoop=1;jettySize=auto;html=1;" parent="1" target="t6z-Ru4cVA2ObkCtdwVK-11" edge="1">
          <mxGeometry relative="1" as="geometry">
            <mxPoint x="448.25" y="293" as="sourcePoint" />
          </mxGeometry>
        </mxCell>
        <mxCell id="t6z-Ru4cVA2ObkCtdwVK-14" value="" style="edgeStyle=orthogonalEdgeStyle;rounded=0;orthogonalLoop=1;jettySize=auto;html=1;" parent="1" source="t6z-Ru4cVA2ObkCtdwVK-11" target="t6z-Ru4cVA2ObkCtdwVK-13" edge="1">
          <mxGeometry relative="1" as="geometry" />
        </mxCell>
        <mxCell id="t6z-Ru4cVA2ObkCtdwVK-11" value="根据风速向量计算粒子在下一周期的位置&amp;amp;粒子生命周期-1" style="whiteSpace=wrap;html=1;rounded=1;" parent="1" vertex="1">
          <mxGeometry x="388.25" y="315" width="120" height="60" as="geometry" />
        </mxCell>
        <mxCell id="t6z-Ru4cVA2ObkCtdwVK-16" value="" style="edgeStyle=orthogonalEdgeStyle;rounded=0;orthogonalLoop=1;jettySize=auto;html=1;" parent="1" source="t6z-Ru4cVA2ObkCtdwVK-13" target="t6z-Ru4cVA2ObkCtdwVK-15" edge="1">
          <mxGeometry relative="1" as="geometry" />
        </mxCell>
        <mxCell id="t6z-Ru4cVA2ObkCtdwVK-13" value="&lt;div&gt;根据粒子在网格中的位置计算粒子的经纬度坐标&lt;/div&gt;" style="whiteSpace=wrap;html=1;rounded=1;" parent="1" vertex="1">
          <mxGeometry x="388.25" y="395" width="120" height="60" as="geometry" />
        </mxCell>
        <mxCell id="t6z-Ru4cVA2ObkCtdwVK-15" value="Cesium根据粒子本周期的经纬度与下个周期的经纬度画出风场线" style="whiteSpace=wrap;html=1;rounded=1;" parent="1" vertex="1">
          <mxGeometry x="388.25" y="475" width="120" height="60" as="geometry" />
        </mxCell>
        <mxCell id="0AltbWP8e84UrqGMIu3--1" value="粒子生命周&lt;br&gt;期结束？" style="rhombus;whiteSpace=wrap;html=1;rounded=1;" parent="1" vertex="1">
          <mxGeometry x="210" y="426" width="120" height="80" as="geometry" />
        </mxCell>
        <mxCell id="0AltbWP8e84UrqGMIu3--3" value="从网格中随机获取一个粒子(格点)，并由风速向量计算粒子生命周期" style="whiteSpace=wrap;html=1;rounded=1;" parent="1" vertex="1">
          <mxGeometry x="201" y="317" width="142" height="60" as="geometry" />
        </mxCell>
      </root>
    </mxGraphModel>
  </diagram>
</mxfile>
